<?xml version="1.0" encoding="UTF-8"?>
<svg width="128" height="128" viewBox="0 0 128 128" xmlns="http://www.w3.org/2000/svg">
  <defs>
    <linearGradient id="grad1" x1="0%" y1="0%" x2="100%" y2="100%">
      <stop offset="0%" style="stop-color:#007bff;stop-opacity:1" />
      <stop offset="100%" style="stop-color:#0056b3;stop-opacity:1" />
    </linearGradient>
  </defs>
  
  <!-- 背景圆形 -->
  <circle cx="64" cy="64" r="60" fill="url(#grad1)" stroke="#fff" stroke-width="4"/>
  
  <!-- 图片图标 -->
  <rect x="24" y="32" width="48" height="36" rx="4" fill="#fff" opacity="0.9"/>
  <rect x="28" y="36" width="40" height="28" rx="2" fill="#e9ecef"/>
  
  <!-- 山峰图标 -->
  <polygon points="32,56 40,44 48,52 56,40 64,48 64,60 32,60" fill="#6c757d"/>
  
  <!-- 太阳 -->
  <circle cx="52" cy="44" r="3" fill="#ffc107"/>
  
  <!-- AI魔法效果 -->
  <g transform="translate(70, 70)">
    <!-- 魔法棒 -->
    <line x1="0" y1="20" x2="20" y2="0" stroke="#fff" stroke-width="3" stroke-linecap="round"/>
    <circle cx="20" cy="0" r="3" fill="#ffc107"/>
    
    <!-- 星星效果 -->
    <g fill="#fff">
      <polygon points="8,8 10,12 14,10 10,14 8,18 6,14 2,16 6,12" opacity="0.8"/>
      <polygon points="24,16 25,18 27,17 25,19 24,21 23,19 21,20 23,18" opacity="0.6"/>
      <polygon points="16,24 17,26 19,25 17,27 16,29 15,27 13,28 15,26" opacity="0.7"/>
    </g>
  </g>
  
  <!-- 文字 G -->
  <text x="64" y="100" font-family="Arial, sans-serif" font-size="24" font-weight="bold" text-anchor="middle" fill="#fff">G</text>
</svg>